<?xml version="1.0" standalone="no"?><!DOCTYPE svg PUBLIC "-//W3C//DTD SVG 1.1//EN" "http://www.w3.org/Graphics/SVG/1.1/DTD/svg11.dtd"><svg width="100%" height="100%" viewBox="0 0 100 100" version="1.1" xmlns="http://www.w3.org/2000/svg" xmlns:xlink="http://www.w3.org/1999/xlink" xml:space="preserve" style="fill-rule:evenodd;clip-rule:evenodd;stroke-linejoin:round;stroke-miterlimit:1.41421;"><path d="M71.868,63.931c-1.095,-1.096 -2.873,-1.096 -3.969,0l-3.968,3.968c-1.096,1.096 -1.096,2.874 0,3.969l27.31,27.311c1.095,1.095 2.874,1.095 3.969,0l3.969,-3.969c1.095,-1.095 1.095,-2.874 0,-3.969l-27.311,-27.31ZM37.147,0c20.502,0 37.147,16.645 37.147,37.147c0,20.502 -16.645,37.147 -37.147,37.147c-20.502,0 -37.147,-16.645 -37.147,-37.147c0,-20.502 16.645,-37.147 37.147,-37.147ZM37.147,9.418c15.304,0 27.728,12.425 27.728,27.729c0,15.304 -12.424,27.728 -27.728,27.728c-15.304,0 -27.729,-12.424 -27.729,-27.728c0,-15.304 12.425,-27.729 27.729,-27.729ZM38.825,48.249c2.196,0.513 3.786,2.008 3.786,3.772c0,2.186 -2.443,3.96 -5.453,3.96c-3.011,0 -5.454,-1.774 -5.454,-3.96c0,-1.75 1.565,-3.236 3.733,-3.759l0.464,3.384c0.197,1.182 2.272,1.136 2.459,0l0.465,-3.397l0,0ZM39.692,36.856c0.024,-0.002 0.047,0.005 0.065,0.022c0.017,0.017 0.025,0.04 0.023,0.063c-0.143,1.261 -1.627,14.428 -1.627,14.428c-0.123,1.092 -1.906,1.151 -2.035,0c0,0 -1.477,-13.388 -1.587,-14.389c-0.004,-0.031 0.012,-0.061 0.04,-0.076c0.337,0.027 4.295,0.142 5.121,-0.048l0,0ZM37.147,18.313c9.662,0 17.506,4.113 17.506,9.179c0,5.066 -7.844,9.179 -17.506,9.179c-9.662,0 -17.506,-4.113 -17.506,-9.179c0,-5.066 7.844,-9.179 17.506,-9.179Z" style="fill:#000;"/></svg>