<?xml version="1.0" standalone="no"?><!DOCTYPE svg PUBLIC "-//W3C//DTD SVG 1.1//EN" "http://www.w3.org/Graphics/SVG/1.1/DTD/svg11.dtd"><svg width="100%" height="100%" viewBox="0 0 100 100" version="1.1" xmlns="http://www.w3.org/2000/svg" xmlns:xlink="http://www.w3.org/1999/xlink" xml:space="preserve" style="fill-rule:evenodd;clip-rule:evenodd;stroke-linejoin:round;stroke-miterlimit:1.41421;"><path d="M50,81.207c4.842,0 8.773,3.931 8.773,8.773c0,4.841 -3.931,8.772 -8.773,8.772c-4.842,0 -8.773,-3.931 -8.773,-8.772c0,-4.842 3.931,-8.773 8.773,-8.773ZM77.573,81.207c4.842,0 8.773,3.931 8.773,8.773c0,4.841 -3.931,8.772 -8.773,8.772c-4.842,0 -8.773,-3.931 -8.773,-8.772c0,-4.842 3.931,-8.773 8.773,-8.773ZM22.473,81.207c4.842,0 8.773,3.931 8.773,8.773c0,4.841 -3.931,8.772 -8.773,8.772c-4.842,0 -8.773,-3.931 -8.773,-8.772c0,-4.842 3.931,-8.773 8.773,-8.773ZM35.649,60.037c4.079,0.952 7.034,3.731 7.034,7.008c0,4.062 -4.54,7.359 -10.133,7.359c-5.594,0 -10.134,-3.297 -10.134,-7.359c0,-3.251 2.908,-6.012 6.936,-6.985l0.863,6.289c0.365,2.196 4.221,2.11 4.569,0l0.865,-6.312l0,0ZM75.505,62.438c3.397,0.793 5.859,3.108 5.859,5.837c0,3.383 -3.782,6.129 -8.44,6.129c-4.658,0 -8.44,-2.746 -8.44,-6.129c0,-2.707 2.422,-5.006 5.777,-5.817l0.719,5.238c0.304,1.829 3.515,1.757 3.805,0l0.72,-5.258l0,0ZM76.846,44.807c0.037,-0.005 0.074,0.008 0.101,0.033c0.026,0.026 0.039,0.062 0.035,0.098c-0.22,1.951 -2.517,22.33 -2.517,22.33c-0.191,1.69 -2.95,1.78 -3.151,0c0,0 -2.284,-20.721 -2.455,-22.27c-0.005,-0.048 0.02,-0.095 0.063,-0.118c0.521,0.043 6.647,0.221 7.924,-0.073l0,0ZM37.259,38.865c0.044,-0.004 0.088,0.01 0.121,0.041c0.032,0.031 0.047,0.074 0.042,0.118c-0.264,2.342 -3.022,26.811 -3.022,26.811c-0.229,2.029 -3.543,2.138 -3.783,0c0,0 -2.744,-24.88 -2.949,-26.74c-0.006,-0.057 0.024,-0.113 0.076,-0.141c0.626,0.051 7.981,0.265 9.515,-0.089l0,0ZM66.719,16.482c1.988,-0.244 4.06,-0.373 6.189,-0.373c14.952,0 27.092,6.366 27.092,14.206c0,7.84 -12.14,14.206 -27.092,14.206c-9.78,0 -18.357,-2.723 -23.12,-6.802c10.865,-3.181 18.22,-9.271 18.22,-16.254c0,-1.726 -0.449,-3.397 -1.289,-4.983ZM32.53,4.407c17.954,0 32.531,7.644 32.531,17.058c0,9.414 -14.577,17.057 -32.531,17.057c-17.954,0 -32.53,-7.643 -32.53,-17.057c0,-9.414 14.576,-17.058 32.53,-17.058Z" style="fill:#000;"/></svg>