<?xml version="1.0" standalone="no"?><!DOCTYPE svg PUBLIC "-//W3C//DTD SVG 1.1//EN" "http://www.w3.org/Graphics/SVG/1.1/DTD/svg11.dtd"><svg width="100%" height="100%" viewBox="0 0 100 100" version="1.1" xmlns="http://www.w3.org/2000/svg" xmlns:xlink="http://www.w3.org/1999/xlink" xml:space="preserve" style="fill-rule:evenodd;clip-rule:evenodd;stroke-linejoin:round;stroke-miterlimit:1.41421;"><path d="M54.455,79.474c5.828,1.36 10.05,5.331 10.05,10.012c0,5.803 -6.487,10.514 -14.477,10.514c-7.991,0 -14.478,-4.711 -14.478,-10.514c0,-4.644 4.155,-8.588 9.91,-9.979l1.232,8.985c0.522,3.138 6.03,3.014 6.528,0l1.235,-9.018l0,0ZM56.755,49.228c0.064,-0.007 0.127,0.014 0.173,0.058c0.046,0.044 0.068,0.106 0.061,0.168c-0.377,3.347 -4.318,38.304 -4.318,38.304c-0.327,2.899 -5.061,3.054 -5.405,0c0,0 -3.919,-35.545 -4.212,-38.202c-0.009,-0.082 0.034,-0.162 0.108,-0.202c0.895,0.073 11.402,0.379 13.593,-0.126l0,0ZM50,0c25.65,0 46.474,10.919 46.474,24.369c0,13.45 -20.824,24.369 -46.474,24.369c-25.65,0 -46.474,-10.919 -46.474,-24.369c0,-13.45 20.824,-24.369 46.474,-24.369Z" style="fill:#000;"/></svg>