<?xml version="1.0" standalone="no"?><!DOCTYPE svg PUBLIC "-//W3C//DTD SVG 1.1//EN" "http://www.w3.org/Graphics/SVG/1.1/DTD/svg11.dtd"><svg width="100%" height="100%" viewBox="0 0 100 100" version="1.1" xmlns="http://www.w3.org/2000/svg" xmlns:xlink="http://www.w3.org/1999/xlink" xml:space="preserve" style="fill-rule:evenodd;clip-rule:evenodd;stroke-linejoin:round;stroke-miterlimit:1.41421;"><path d="M54.455,79.474c5.828,1.36 10.05,5.331 10.05,10.012c0,5.803 -6.487,10.514 -14.477,10.514c-7.991,0 -14.478,-4.711 -14.478,-10.514c0,-4.644 4.155,-8.588 9.91,-9.979l1.232,8.985c0.522,3.138 6.03,3.014 6.528,0l1.235,-9.018l0,0ZM55.509,62.583l-2.838,25.175c-0.327,2.899 -5.061,3.054 -5.405,0l-1.594,-14.459c4.161,-2.621 7.573,-6.325 9.837,-10.716ZM8.06,34.873c-2.906,-3.181 -4.534,-6.744 -4.534,-10.504c0,-13.45 20.824,-24.369 46.474,-24.369c25.65,0 46.474,10.919 46.474,24.369c0,11.927 -16.376,21.864 -37.971,23.961c-0.864,-14.409 -12.839,-25.843 -27.464,-25.843c-9.599,0 -18.056,4.926 -22.979,12.386Z" style="fill:#000;"/><circle cx="31.039" cy="50" r="23.74" style="fill:#000;"/></svg>